PathFileType	4	(X/Y/Z)	Patient4_TMGait_0pt5_01_right_27.trc.trc
DataRate	CameraRate	NumFrames	NumMarkers	Units	OrigDataRate	OrigDataStartFrame	OrigNumFrames
75.675675675676	75.675675675676	6	33	mm	75.675675675676	124	       141
Frame#	Time	L.ASIS			Sacral			L.Shoulder			Chest			R.Shoulder			Neck			R.ASIS			R.Thigh.Superior			R.Thigh.Lateral			R.Thigh.Inferior			R.Patella			L.Thigh.Superior			L.Thigh.Lateral			L.Thigh.Inferior			L.Patella			L.Shank.Superior			L.Shank.Lateral			L.Shank.Inferior			R.Shank.Superior			R.Shank.Lateral			R.Shank.Inferior			R.Heel			R.Midfoot.Superior			R.Midfoot.Lateral			R.Toe			L.Heel			L.Midfoot.Lateral			L.Midfoot.Superior			L.Toe			L.Elbow			L.Wrist			R.Elbow			R.Wrist			
		X1	Y1	Z1	X2	Y2	Z2	X3	Y3	Z3	X4	Y4	Z4	X5	Y5	Z5	X6	Y6	Z6	X7	Y7	Z7	X8	Y8	Z8	X9	Y9	Z9	X10	Y10	Z10	X11	Y11	Z11	X12	Y12	Z12	X13	Y13	Z13	X14	Y14	Z14	X15	Y15	Z15	X16	Y16	Z16	X17	Y17	Z17	X18	Y18	Z18	X19	Y19	Z19	X20	Y20	Z20	X21	Y21	Z21	X22	Y22	Z22	X23	Y23	Z23	X24	Y24	Z24	X25	Y25	Z25	X26	Y26	Z26	X27	Y27	Z27	X28	Y28	Z28	X29	Y29	Z29	X30	Y30	Z30	X31	Y31	Z31	X32	Y32	Z32	X33	Y33	Z33	

124	37.055357142857	902.183149029604	950.655215541895	298.808153560536	679.294721154883	990.267050072528	445.071834486750	853.733779758096	1414.842534941939	261.087697248720	942.780407732799	1356.818512876907	434.144373257658	840.097628351085	1435.124002916833	596.770137989315	838.916612990116	1482.837763123820	409.038287386466	901.470160281759	931.411948261700	574.802824269918	974.634787475943	754.276845789890	546.024670664573	922.146369072393	631.804932273145	612.946107878077	1010.310775317727	593.675842045594	534.147572425644	1036.338006837528	510.590886059039	544.206661181195	894.949719954452	722.692979506683	324.991535028686	773.432969590519	633.082501374766	263.311632635660	827.842290559662	537.473679300740	328.340555376678	809.327995525082	470.199234469493	338.894709526258	774.265897428684	405.920722500166	330.803308139325	669.128033654567	305.257429288554	279.466686462019	701.519180704785	188.932845320788	354.240300875295	1024.216245542500	420.206072161988	555.052423244434	975.303625715061	307.551301570930	621.461685038077	1039.078915931570	221.037198116102	565.379773823661	937.539188773327	43.337704664046	544.566184531257	1105.920066957305	107.377880238021	573.030203132167	1025.090940789790	38.673096487073	613.832924024605	1229.372306172123	62.367527830945	594.524273259790	556.528346808211	40.844130877007	395.652602904041	632.789385888328	35.430614219523	317.820711546154	716.268351721940	95.185912351339	345.850035727997	844.475886104492	41.097006917849	321.973527648411	895.416363416864	1068.922593318038	127.974152006832	1116.765632596871	929.945883330256	148.680015897619	693.039417139241	1133.306302638624	719.574793061834	666.729898635161	875.412557086258	753.284762551425	
125	37.068571428571	903.898965790399	950.034449830945	301.008110394100	681.560702156151	989.258957454075	447.978807056613	853.791787698824	1414.460435539283	264.194597412601	943.583975660703	1356.685423718260	436.986280182263	840.717763039291	1434.140826612554	599.969605107336	839.129089517207	1482.277614957533	412.299671501509	904.484918560231	930.479901877924	576.712953945601	977.724793745388	752.713941641904	546.991295343649	923.682603101073	630.558820656557	613.160668628642	1011.472284324344	592.379688984397	534.145834728524	1035.952202737037	508.346026786436	543.718888368083	896.315629274837	721.737503967664	326.315676716392	773.922617832646	632.711759878282	265.194561442091	828.155553236779	536.544557928380	329.763983338970	809.295368984989	468.775066202730	340.284479361691	773.014251779796	405.001504978358	332.056425280223	666.148655078155	306.180350020615	280.544559863516	696.748376100615	188.981770082210	354.669151838018	1023.000306873649	417.516826398414	554.685281856925	972.579006109260	305.433029322414	621.037330878686	1034.396363344842	218.000224458388	564.427239015047	929.114722821715	42.635282724139	543.865626415602	1098.527664735704	104.058298214134	571.929415884348	1016.473640737320	37.380287660162	613.492567227336	1221.482888662169	57.269151624796	593.980841543662	549.993608233775	42.148196353809	395.454214503913	626.311793358691	35.954716914728	317.808482203585	710.147518093005	95.353277238420	345.718980580765	837.991705209576	40.609190024558	321.916884214345	894.941730613827	1068.266537535899	131.098154996403	1116.778912800170	930.178552465656	151.906579337164	696.345116646525	1130.547466050503	722.028496166151	674.073963998153	871.884511747946	754.734850814949	
126	37.081785714286	905.543403825200	949.749539857220	303.295292996621	683.736011197235	988.687752103703	450.969556056456	853.937486352574	1414.497761021457	267.402564331191	944.508455697326	1356.862476207724	439.869645489735	841.587755526500	1433.495452763726	603.266696719954	839.560222746691	1482.112038668269	415.677033213213	907.433166851060	930.013499766632	578.696409939807	980.581122957328	751.547410213169	547.901082468794	925.270407794762	629.877858604826	613.613828178169	1012.383154193023	591.463572017107	534.136880722757	1035.381921038657	506.521513427864	543.397479418843	897.991699266965	721.157548515971	327.843133289666	775.004405032023	632.423094338085	267.291562785086	829.370774985055	535.781057963533	331.324083718368	810.289424605748	467.337913203032	341.708837699049	772.548863906532	404.105403206660	333.394455709991	663.742692256573	307.412520452231	281.739826546815	692.381131285997	189.257693908961	355.084738796964	1021.646750669877	415.390003430873	554.503360029936	969.969994068034	303.869285789487	620.951472933574	1029.800325652693	215.580474446478	563.707836805517	921.080259033435	42.161978413001	543.506555296781	1091.316171107435	101.500259167042	571.062646260097	1008.335068835031	36.515382955658	613.364380507852	1213.898254056595	53.409048488116	593.466193806159	543.543747564955	44.043975563449	395.234994917850	619.891791696164	36.758939449324	317.785294749975	704.264727762869	95.609195759626	345.504706230129	831.530257157201	40.097532420982	321.855469161502	894.179735684419	1067.912638372675	134.479478298624	1116.017445098880	929.858440891659	155.035453135921	700.585826434406	1127.724604816857	724.574008248024	682.817545192197	868.298552414938	756.174381825110	
127	37.095000000000	907.092688503124	949.860207295918	305.668057197375	685.789466049995	988.595401476461	454.019699977294	854.193655850936	1415.003087891346	270.682090034425	945.538817832882	1357.378831312055	442.770434542517	842.701734454057	1433.248689355757	606.622594113671	840.206821583215	1482.375406518599	419.135188628586	910.249021173173	930.058648903805	580.784019957120	983.105551164406	750.829087142521	548.813233067199	926.828748045781	629.751014398112	614.345308851088	1012.985220308495	590.923848240859	534.201261632382	1034.565016774324	505.146260462402	543.306535822231	899.982087158577	721.002828541703	329.586877506490	776.755025056745	632.216574788174	269.568638656226	831.621898350765	535.206415220069	332.970143198987	812.465365180736	465.899773673862	343.065673274960	772.986271249839	403.245471376175	334.749399822200	662.014837939645	309.004738767187	283.017487892429	688.505375441615	189.815807087385	355.445454024274	1020.100106394130	413.843762922314	554.536259595960	967.413482927822	302.861748457109	621.190769755539	1025.289721905806	213.804910098860	563.236312077340	913.538410670870	41.896871201746	543.417031298262	1084.378540597840	99.718647690045	570.453672779634	1000.755381819747	36.032090967380	613.401302452763	1206.697905331237	50.781875668798	593.030779398882	537.238737844038	46.673092033812	394.999447290061	613.559092941390	37.927096802878	317.751455732183	698.685765377876	95.974988062831	345.187659002158	825.088616073514	39.583603360927	321.797093463680	893.095960192683	1067.920830222269	138.113308697707	1114.443332664569	929.030881328462	158.053105652297	705.712383672996	1124.974209513591	727.216982370714	692.978970562100	864.839595032081	757.615300698259	
128	37.108214285714	908.531895616300	950.390284977637	308.119794043422	687.708037112004	988.978272744291	457.125514759176	854.560853074205	1415.978365010593	274.005564182209	946.651461657005	1358.233318682272	445.666552264345	844.040224016300	1433.424028385621	610.001485942784	841.039926187210	1483.060962831399	422.640132301636	912.891586940188	930.612649019912	582.999693303506	985.225370708209	750.540432114463	549.804782154637	928.226774818876	630.097926251514	615.370419892160	1013.210326940099	590.697548771566	534.426672157744	1033.411956202027	504.184155640079	543.481720426633	902.301794787626	721.290485792245	331.533767286546	779.246377953614	632.075207519865	271.973482345166	835.030532272253	534.826200856417	334.630597440949	815.959986075770	464.468063402638	344.240525205557	774.440614989892	402.427251447186	336.041858524276	661.079136941920	310.994565034648	284.331431686544	685.215042824756	190.706197131257	355.708843894676	1018.272536000199	412.824203620014	554.793293056637	964.783085418967	302.343862843940	621.707335659924	1020.799535927023	212.621146445134	563.004163949636	906.475158900487	41.798826536981	543.518741454559	1077.714536488496	98.638413493394	570.091489331348	993.697801563733	35.851416873352	613.554201408803	1199.863745656772	49.247091806670	592.704174364613	531.160965715952	50.177716448810	394.751185094966	607.357577868459	39.555380232498	317.707257959443	693.479711935899	96.477095138130	344.753562759600	818.663208968210	39.088152430348	321.752021451302	891.656155540662	1068.316962278892	141.976096279533	1112.029493994659	927.747985120456	160.949648055661	711.631778845635	1122.418147907964	729.971173876336	704.573153629584	861.688979676187	759.071608951969	
129	37.121428571429	909.850222567555	951.318034954616	310.639987761855	689.491469828638	989.786602904449	460.300604938221	855.012180935892	1417.375448882815	277.350285376410	947.816718585956	1359.392486140897	448.538669390735	845.574078002654	1434.001170807623	613.375180983902	842.009107126932	1484.120301079659	426.163627090090	915.345142313971	931.623905495277	585.351429217942	986.895525641459	750.591234590063	550.965507305096	929.288689048862	630.783720570207	616.683000866334	1012.982276984869	590.679408498727	534.898445523190	1031.823166458205	503.553731404928	543.927280318830	904.975576082398	722.002607056423	333.649734788655	782.542096420989	631.967035024645	274.441363370622	839.692610071244	534.630265445552	336.227130714877	820.876150539338	463.048811813127	345.129169252477	777.016590533172	401.650972136224	337.194984137783	661.056502246415	313.404515874098	285.630510132661	682.608928501841	191.973871437471	355.839448697427	1016.065906094652	412.229143704047	555.265770975569	961.929830723002	302.203114126076	622.432789094192	1016.235517991937	211.922750938099	562.984374411501	899.800772666315	41.817887037395	543.737303637863	1071.265125162084	98.124764138598	569.938452731001	987.052393968570	35.881716562341	613.777568322790	1193.317168540767	48.579094090148	592.494442337824	525.418000408830	54.698521590231	394.492367278049	601.348885558077	41.755264360507	317.652604232127	688.717687968665	97.150448126140	344.197389338392	812.252472717787	38.625291083621	321.730817900655	889.829354445569	1069.084619582931	146.026532921021	1108.762391313585	926.059853838573	163.717272873313	718.219615952436	1120.148244882576	732.861834632531	717.603849934688	859.011887427953	760.558081158725	
